<svg width="44" height="44" viewBox="0 0 44 44" fill="none" xmlns="http://www.w3.org/2000/svg">
<rect width="44" height="44" rx="8.8" fill="#1A347F"/>
<path d="M11.6566 30.5949V27.9171C11.6566 26.8584 11.2443 26.3774 10.4204 26.3774C9.59647 26.3774 9.113 26.9665 9.113 27.9258V30.5943H8.18164V23.5469H8.19104C8.70033 23.5472 9.113 23.9575 9.113 24.4635V26.1906H9.13113C9.42659 25.755 9.90133 25.5322 10.5191 25.5322C11.7016 25.5322 12.588 26.28 12.588 27.6323V30.5949H11.6566Z" fill="white"/>
<path fill-rule="evenodd" clip-rule="evenodd" d="M13.4186 28.081C13.3877 29.5159 14.5869 30.7014 16.0313 30.7187C17.6328 30.7347 18.7576 29.4906 18.773 28.165C18.7912 26.5986 17.5012 25.5312 16.1314 25.5312C14.6313 25.5312 13.4528 26.6133 13.4186 28.081ZM14.3516 28.12C14.3516 27.1594 15.1574 26.3762 16.0888 26.3762C17.0608 26.3812 17.8447 27.168 17.8397 28.1337C17.8347 29.0994 17.0426 29.8782 16.0706 29.8732C15.1305 29.8732 14.3516 29.054 14.3516 28.12Z" fill="white"/>
<path d="M19.7179 29.856V26.5104H19.3291V25.6652H19.7159V24.0107H20.6472V25.6652H21.4618V26.5104H20.6493V30.7132H20.5821C20.1053 30.7132 19.7186 30.3296 19.7179 29.856V29.856Z" fill="white"/>
<path d="M24.195 26.9732C24.1507 26.617 23.9445 26.3768 23.5591 26.3768C23.2012 26.3768 22.9769 26.617 22.9769 26.9018C22.9769 27.3201 23.4074 27.4448 23.8996 27.5963C24.5979 27.8098 25.2425 28.228 25.2425 29.144C25.2425 30.0959 24.5435 30.719 23.5766 30.719C22.6808 30.719 21.8213 30.114 21.8213 28.9752H22.7533C22.7983 29.5709 23.1025 29.8738 23.5954 29.8738C24.0251 29.8738 24.3119 29.5976 24.3119 29.1973C24.3119 28.8591 24.052 28.637 23.4698 28.4502C22.2517 28.0673 22.0456 27.5429 22.0456 26.9825C22.0456 26.1106 22.7889 25.5322 23.6041 25.5322C24.4193 25.5322 25.0995 26.1019 25.1264 26.9739L24.195 26.9732Z" fill="white"/>
<path d="M26.2279 29.856V26.5104H25.8418V25.6652H26.2286V24.0107H27.1599V25.6652H27.9751V26.5104H27.1593V30.7132H27.0921C26.6153 30.7132 26.2286 30.3296 26.2279 29.856V29.856Z" fill="white"/>
<path fill-rule="evenodd" clip-rule="evenodd" d="M32.5689 29.8288V30.594H33.5002V25.6647H32.5689V26.3591H32.5507C32.166 25.7981 31.5569 25.5312 30.831 25.5312C29.3712 25.5312 28.2344 26.6347 28.2344 28.2097C28.2344 29.6333 29.4162 30.7187 30.8673 30.7187C31.5744 30.7187 32.2015 30.4159 32.5507 29.8288H32.5689ZM30.8575 26.3761C31.8876 26.3761 32.586 27.1773 32.586 28.138C32.5863 29.0767 31.8349 29.8454 30.8904 29.8725C29.9732 29.8898 29.2157 29.1486 29.1674 28.2354C29.1117 27.222 29.8953 26.3761 30.8575 26.3761Z" fill="white"/>
<path d="M34.584 30.594V25.6647H35.4529V26.1096H35.4704C35.6946 25.7808 36.0794 25.5673 36.7334 25.5312V26.4832C35.9276 26.5099 35.5153 26.9996 35.5153 27.8268V29.7928C35.5153 30.2349 35.1546 30.5933 34.7096 30.5933L34.584 30.594Z" fill="white"/>
<path fill-rule="evenodd" clip-rule="evenodd" d="M18.4206 19.8894C18.4266 20.057 18.4162 20.2247 18.3897 20.3904C18.3662 20.5023 18.3345 20.6125 18.295 20.7199C18.2443 20.8357 18.1876 20.9488 18.1251 21.0588C17.9918 21.2754 17.8296 21.4731 17.643 21.6465C17.1145 22.1002 16.3 22.3583 15.5943 22.4471C15.0857 22.5071 14.5709 22.4922 14.0666 22.403C13.8934 22.3717 13.6349 22.3123 13.6349 22.3123C13.6349 22.3123 13.6349 22.415 13.6275 22.4871C13.6183 22.5378 13.6039 22.5874 13.5845 22.6352C13.5502 22.7083 13.4804 22.7587 13.3999 22.7686C13.2954 22.7941 13.1857 22.7888 13.0842 22.7533C12.9238 22.6866 12.866 22.5371 12.8385 22.365C12.8157 22.2276 12.7922 21.9888 12.7922 21.9888C12.7922 21.9888 12.672 21.9321 12.5719 21.8827C12.2724 21.7344 11.9866 21.5602 11.7178 21.3623C11.6506 21.3096 11.3431 21.0575 11.2759 20.9941C11.0851 20.8263 10.9212 20.6306 10.7898 20.4137C10.6897 20.2369 10.6608 20.0801 10.7374 19.8927C10.8421 19.6312 11.2188 19.4344 11.476 19.3223C11.8073 19.19 12.1495 19.0864 12.4987 19.0128C12.6017 18.9996 12.7039 18.9811 12.8049 18.9574C12.8088 18.9544 12.8124 18.9511 12.8157 18.9474C12.821 18.9394 12.8311 18.6805 12.8291 18.5865C12.8271 18.4924 12.8962 17.882 12.9211 17.7533C12.9332 17.6865 12.9882 17.4144 13.0413 17.3437C13.0798 17.3003 13.1457 17.2948 13.191 17.331C13.471 17.5044 13.5563 18.1055 13.5771 18.4117C13.5899 18.5978 13.5959 18.8787 13.5959 18.8787C13.5959 18.8787 13.9182 18.8693 14.1163 18.8787C14.319 18.8877 14.5209 18.91 14.7207 18.9454C14.9765 18.9861 15.4748 19.0942 15.7608 19.2383C15.9965 19.3563 16.2168 19.5565 16.2879 19.7679C16.3579 19.9323 16.3413 20.1205 16.2436 20.2703C16.1308 20.4706 15.9269 20.6038 15.697 20.6272C15.6299 20.6305 15.3881 20.5985 15.3129 20.5411C15.286 20.5169 15.2833 20.4758 15.3069 20.4484C15.3681 20.41 15.4313 20.3748 15.4962 20.343C15.528 20.3259 15.5575 20.3051 15.5842 20.281C15.6418 20.244 15.6789 20.1827 15.6849 20.1148C15.6769 20.0328 15.5896 19.9814 15.5063 19.9501C15.1162 19.796 14.3366 19.6679 13.9619 19.6459C13.8148 19.6372 13.6053 19.6298 13.6053 19.6298L13.6496 21.6979C13.6496 21.6979 13.8229 21.7313 13.9592 21.7533C14.0378 21.7646 14.3695 21.7946 14.4581 21.7966C15.1296 21.814 15.8803 21.7546 16.4968 21.4631C16.7642 21.3472 17.0048 21.178 17.2038 20.9661C17.4597 20.6694 17.5837 20.2824 17.5477 19.8934C17.51 19.4531 17.1978 18.9294 16.948 18.6112C16.2893 17.7693 15.1605 17.0768 14.1667 16.6712C13.1867 16.2539 12.1389 16.0157 11.0738 15.9681C10.7965 15.9581 10.1915 15.9721 9.88594 16.0561C9.86879 16.0608 9.85174 16.0658 9.8349 16.0708C9.80824 16.0787 9.78212 16.0864 9.75701 16.0921C9.72314 16.1006 9.69076 16.1141 9.66099 16.1322C9.65556 16.1368 9.6504 16.1417 9.64554 16.1468C9.64554 16.1468 9.66434 16.1569 9.68247 16.1649C9.70127 16.173 9.75547 16.1792 9.8115 16.1855C9.85155 16.19 9.89253 16.1947 9.9222 16.2002C9.98415 16.2087 10.0399 16.242 10.0766 16.2923C10.104 16.3255 10.104 16.3732 10.0766 16.4064C10.0095 16.4904 9.74627 16.4731 9.63144 16.4584C9.51662 16.4437 9.36284 16.403 9.33598 16.2996C9.30442 16.1782 9.36284 16.0588 9.42529 15.9487C9.55153 15.7279 9.73216 15.6152 9.9974 15.5418C10.3925 15.4369 10.7976 15.3738 11.2061 15.3537C12.0119 15.3236 12.77 15.4631 13.5489 15.6979C14.0469 15.8513 14.5334 16.0394 15.0047 16.2609C15.3688 16.4395 15.723 16.6375 16.0657 16.854C16.151 16.91 16.6519 17.2749 16.7291 17.3396C16.8916 17.4731 17.1038 17.6605 17.2576 17.812C17.5544 18.1048 17.9244 18.5531 18.1043 18.9094C18.1184 18.9374 18.1316 18.9654 18.1449 18.9937L18.1449 18.9937L18.1449 18.9937C18.172 19.0515 18.1999 19.1109 18.2386 19.1762C18.2834 19.2719 18.3217 19.3704 18.3534 19.4711C18.3669 19.5291 18.387 19.6138 18.3897 19.6172C18.4062 19.7071 18.417 19.798 18.4219 19.8894H18.4206ZM18.6216 18.3817C18.6464 18.3308 18.6749 18.2817 18.7068 18.2349L18.7055 18.2342C18.7088 18.2302 18.7283 18.2402 18.7438 18.2516C18.7942 18.27 18.8464 18.2834 18.8995 18.2916C18.9311 18.2937 18.9637 18.2991 18.9964 18.3045C19.0263 18.3094 19.0564 18.3144 19.0862 18.317C19.3089 18.3232 19.5306 18.2841 19.7376 18.2022C20.1276 18.0474 20.478 17.8083 20.7636 17.5024C20.9476 17.317 21.1081 17.0121 21.049 16.7339C21.0218 16.6015 20.9477 16.4831 20.8402 16.4003C20.752 16.3329 20.6503 16.285 20.542 16.2596C20.5153 16.2576 20.4891 16.2518 20.4641 16.2422C20.4477 16.2283 20.4335 16.2122 20.4218 16.1942C20.3374 16.1005 20.2308 16.0292 20.1116 15.9867C19.8034 15.878 19.3918 15.9607 19.1117 16.0781C18.8182 16.1993 18.553 16.3794 18.3328 16.6071C18.1253 16.826 17.9662 17.1028 17.983 17.403C17.9913 17.5191 18.0226 17.6324 18.075 17.7366C18.0893 17.7621 18.1081 17.7884 18.1271 17.815C18.1623 17.8642 18.1984 17.9147 18.2093 17.9641C18.2145 18.0164 18.2156 18.069 18.2126 18.1215C18.216 18.2469 18.2699 18.3656 18.3624 18.451C18.3869 18.4774 18.4211 18.4929 18.4572 18.4939C18.4934 18.4949 18.5284 18.4814 18.5544 18.4564C18.581 18.4355 18.6037 18.4102 18.6216 18.3817ZM18.6157 17.2697C18.5432 17.3651 18.4559 17.4985 18.4559 17.4985L18.4539 17.4972C18.4539 17.4972 18.4351 17.4592 18.423 17.4305C18.3424 17.2263 18.5251 16.9962 18.6916 16.8548C18.7923 16.7687 18.9978 16.6353 19.1321 16.6086C19.1899 16.5966 19.2919 16.5866 19.2919 16.5866L19.1711 16.6867C18.9674 16.8627 18.7815 17.058 18.6157 17.2697ZM21.6767 19.8784L21.6438 19.8738L21.6425 19.8798L20.5137 19.7463C20.5026 19.745 20.4916 19.743 20.4808 19.7403C20.4748 19.7391 20.4663 19.7377 20.456 19.736C20.381 19.7236 20.2131 19.6958 20.2834 19.6196C20.3239 19.5925 20.3696 19.5739 20.4177 19.5649C20.8075 19.4595 21.2767 19.4435 21.7158 19.4285L21.7158 19.4285L21.7159 19.4285L21.7159 19.4285C21.8523 19.4238 21.9859 19.4192 22.1132 19.4121C22.2895 19.406 22.4648 19.3836 22.6369 19.3454C22.7664 19.3114 22.8658 19.2084 22.8948 19.0786C22.9096 19.0058 22.8726 18.9712 22.8055 18.9351C22.3609 18.7003 21.629 18.6996 21.1758 18.7557C20.7077 18.813 20.0826 18.9578 19.814 19.3401C19.7021 19.5012 19.6607 19.7005 19.6992 19.8924C19.7317 19.9959 19.8068 20.0807 19.906 20.1259C20.005 20.1651 20.1089 20.1906 20.2149 20.202C20.3045 20.2154 20.6426 20.2438 20.9056 20.2659L21.0099 20.2747C21.2664 20.296 21.7653 20.3501 22.0339 20.4622C22.0339 20.4622 22.2878 20.5502 22.2878 20.695C22.2801 20.7649 22.2395 20.827 22.1783 20.8624C21.7781 21.1439 21.2281 21.224 20.7393 21.216C20.5773 21.2161 20.4172 21.1822 20.2693 21.1166C20.1974 21.0852 20.1034 21.0105 20.1168 20.9311C20.1444 20.7764 20.3163 20.737 20.4586 20.7503C20.5484 20.763 20.6362 20.787 20.7198 20.8217C20.786 20.8476 20.8446 20.8727 20.8985 20.8958C21.0997 20.9819 21.2347 21.0397 21.4524 21.0065C21.5578 20.9912 21.9124 20.9145 21.9607 20.7684C21.9695 20.7316 21.9574 20.6929 21.9292 20.6676C21.8916 20.6289 21.6767 20.5462 21.6183 20.5249C21.3486 20.4422 21.07 20.3916 20.7883 20.3741C20.4976 20.3641 20.1121 20.4181 19.9322 20.663C19.8222 20.8186 19.8133 21.0235 19.9093 21.188C20.0356 21.4088 20.2854 21.5802 20.4902 21.6796C20.8468 21.8504 21.2437 21.9208 21.6378 21.8831C21.8472 21.8636 22.0516 21.8083 22.2421 21.7197C22.4929 21.6129 22.6864 21.4056 22.7748 21.1492C22.8632 20.8928 22.8383 20.6112 22.7061 20.3741C22.6319 20.221 22.5031 20.1008 22.3448 20.0365C22.1303 19.9542 21.9056 19.901 21.6767 19.8784ZM19.3782 17.7428C19.6378 17.7253 19.8901 17.6503 20.1168 17.5233C20.3418 17.3986 20.6728 17.1551 20.6379 16.8682C20.6281 16.781 20.5712 16.7061 20.4895 16.6728C20.3894 16.6301 20.3371 16.6367 20.2088 16.6728C20.1304 16.6935 20.0554 16.7252 19.9859 16.7668C19.6738 16.963 19.396 17.2084 19.1633 17.4933C19.1413 17.5223 19.1191 17.5528 19.098 17.5819L19.0979 17.5819C19.0752 17.6131 19.0538 17.6426 19.035 17.6668C19.0122 17.6948 18.9941 17.7208 18.9968 17.7275C19.0042 17.7562 19.2754 17.7535 19.3782 17.7468V17.7428ZM19.0645 18.8508C19.0805 18.8539 19.0963 18.8584 19.1115 18.8642C19.2525 18.9175 19.313 19.0469 19.3452 19.189C19.4258 19.5226 19.46 20.2504 19.4735 20.5366C19.4781 20.6427 19.4818 20.748 19.4854 20.8529V20.853V20.853V20.853V20.853V20.8531V20.8531V20.8531C19.4891 20.9606 19.4929 21.0677 19.4976 21.175L19.4997 21.2241C19.5072 21.3963 19.5164 21.6083 19.4822 21.7621C19.4667 21.8297 19.4265 21.8891 19.3694 21.9289C19.2737 21.9688 19.1681 21.9788 19.0665 21.9576C18.8604 21.9149 18.7932 21.7834 18.7637 21.5806C18.6965 21.097 18.7274 20.1483 18.7684 19.7474C18.7825 19.614 18.8322 19.1917 18.9027 19.0136C18.9262 18.9535 18.9772 18.8328 19.0652 18.8501L19.0645 18.8508ZM12.7919 19.6529L12.7932 19.6528H12.7919L12.7919 19.6529ZM12.7919 19.6529C12.7697 19.6545 12.4782 19.6751 12.2748 19.6975C11.9136 19.7367 11.557 19.81 11.2098 19.9163C11.1225 19.9477 10.9412 20.0211 10.9292 20.1105C10.9171 20.1999 10.9708 20.2752 11.0352 20.3506C11.0722 20.394 11.283 20.5955 11.3421 20.6442C11.6856 20.9143 12.0613 21.1413 12.4608 21.3199C12.5877 21.372 12.7966 21.4467 12.7966 21.4467C12.7966 21.4467 12.7811 20.8523 12.7838 20.2672C12.7838 19.9615 12.7917 19.659 12.7919 19.6529ZM27.1563 19.5661C27.1563 19.5661 28.1461 19.5194 28.5221 19.4327L28.5188 19.4367C28.7122 19.3913 28.598 19.2032 28.598 19.2032C28.3617 18.7369 28.0931 18.7629 28.0931 18.7629C27.3148 18.7362 26.176 18.951 26.0605 19.003C25.945 19.0551 25.9577 19.1411 26.1081 19.3299C26.2727 19.528 26.5412 19.5094 26.5412 19.5094L26.3029 19.9997C26.1088 20.013 26.0417 20.0737 26.0417 20.0737C25.9295 20.1892 26.084 20.5407 26.084 20.5407C26.084 20.5407 25.7462 21.2919 25.9913 21.6922C26.2545 22.1091 26.5654 22.0891 26.5654 22.0891C27.1583 22.1325 28.1307 21.5127 28.183 21.3126C28.226 21.1485 28.0675 20.9603 27.94 20.9343C27.8124 20.9083 26.8441 21.0878 26.7212 21.1211C26.5983 21.1545 26.6541 21.0377 26.6541 21.0377L26.8045 20.5314C26.8045 20.5314 27.7432 20.496 27.8701 20.4733C27.997 20.4507 28.0044 20.3626 28.0044 20.3626C28.0141 20.2698 28.0179 20.1764 28.0158 20.0831C28.0024 19.9363 27.8856 19.9497 27.8856 19.9497C27.6012 19.9294 27.3156 19.9312 27.0314 19.955L27.1563 19.5661ZM25.5949 21.3167C25.4955 21.5495 25.2323 21.7983 24.9046 21.6442C24.5769 21.4901 24.0666 20.4434 24.0666 20.4434C24.0666 20.4434 23.8711 20.0532 23.8335 20.0632C23.8335 20.0632 23.7919 19.9871 23.7664 20.4141C23.7605 20.5132 23.7576 20.6338 23.7545 20.7622C23.7444 21.1868 23.7322 21.6966 23.6012 21.797C23.5335 21.8556 23.443 21.8811 23.3544 21.8668C23.2658 21.8525 23.1882 21.7998 23.1426 21.723C23.0506 21.5722 23.0123 21.2146 23.0627 20.5889C23.113 19.9631 23.2688 19.2907 23.4562 19.0819C23.6366 18.8807 23.781 19.0145 23.8465 19.0753L23.8537 19.0819C23.8537 19.0819 24.1042 19.308 24.5185 19.9718L24.591 20.0945C24.591 20.0945 24.967 20.721 25.0066 20.7196C25.0066 20.7196 25.0375 20.7483 25.0651 20.7276C25.104 20.717 25.0886 20.5155 25.0886 20.5155C25.0886 20.5155 25.01 19.8324 24.6675 18.6756C24.6371 18.5858 24.6311 18.4896 24.6501 18.3967C24.685 18.2633 24.8233 18.324 24.8233 18.324C24.8233 18.324 25.3545 18.5909 25.613 19.4501C25.8715 20.3093 25.6969 21.0865 25.5955 21.318L25.5949 21.3167ZM29.4851 21.8928C30.3937 22.1003 31.0772 21.2217 31.319 20.8021V20.7994C31.4655 20.52 31.5407 20.2091 31.5379 19.8941C31.5379 19.5339 31.4378 19.199 31.2216 19.0455C30.5777 18.6012 29.5389 20.0095 29.0816 20.7073C29.0138 20.3517 29.2555 19.9014 29.2555 19.9014C29.2555 19.9014 29.6456 19.2377 29.6987 19.1009C29.7517 18.9642 29.7772 18.6833 29.7161 18.6559C29.655 18.6286 29.5509 18.718 29.5509 18.718C28.6793 19.4952 28.5578 20.3571 28.5578 20.3571C28.4752 20.8214 28.5719 21.1476 28.7129 21.3758C28.2288 22.4005 27.9917 23.2951 28.0549 23.8234C28.1099 24.2263 28.4034 24.5172 28.58 24.5786C28.7579 24.6526 28.7895 24.4398 28.7895 24.4398C28.8992 23.5624 29.1334 22.7049 29.4851 21.8928ZM31.1322 19.6948C31.1322 19.6948 31.0966 19.4172 30.8233 19.7228C30.4298 20.1443 30.0936 20.6153 29.8234 21.1237C30.1171 21.0857 30.3953 20.9706 30.6292 20.7902C30.7984 20.6407 31.1939 20.2345 31.1301 19.6954L31.1322 19.6948ZM34.6582 19.6311H36.3229V19.6331C36.3968 19.6342 36.4559 19.6944 36.4552 19.7678V20.1114C36.4552 20.1851 36.395 20.2448 36.3209 20.2448H34.6791V20.477C34.6822 20.9386 34.6598 21.4001 34.6119 21.8592C34.6053 21.9279 34.5471 21.9803 34.4776 21.98H34.1217C34.0861 21.9796 34.0523 21.9643 34.0285 21.938C34.0047 21.9116 33.9932 21.8765 33.9968 21.8412C34.0468 21.3882 34.0708 20.9327 34.0687 20.477V20.2448H32.4443C32.3702 20.2448 32.31 20.1851 32.31 20.1114V19.7678C32.31 19.6941 32.3702 19.6344 32.4443 19.6344H34.0458C34.0127 19.0832 33.9418 18.5349 33.8337 17.9933C33.8271 17.9605 33.8357 17.9264 33.8572 17.9006C33.8788 17.8749 33.9107 17.86 33.9445 17.8599H34.3279C34.3873 17.8598 34.4384 17.9019 34.4494 17.96C34.5554 18.5119 34.6252 19.0701 34.6582 19.6311Z" fill="white"/>
<path d="M34.2245 17.0504C32.6243 13.1434 28.9815 10.4351 24.7571 10.0118C20.5328 9.58846 16.4189 11.5195 14.0657 15.0304C14.0423 15.065 14.0366 15.1084 14.0502 15.1478C14.0636 15.1875 14.0949 15.2186 14.1348 15.2319L14.433 15.3319C14.4504 15.3374 14.4684 15.3403 14.4867 15.3406C14.5408 15.3395 14.591 15.3121 14.621 15.2672C16.6412 12.3083 20.0067 10.5371 23.6055 10.5387C27.9695 10.5389 31.9099 13.1331 33.6108 17.1258C33.6355 17.1832 33.6923 17.2205 33.7551 17.2205H34.111C34.1522 17.2201 34.1906 17.1995 34.2136 17.1656C34.2367 17.1316 34.2415 17.0886 34.2265 17.0504H34.2245Z" fill="url(#paint0_radial_171_7816)"/>
<defs>
<radialGradient id="paint0_radial_171_7816" cx="0" cy="0" r="1" gradientUnits="userSpaceOnUse" gradientTransform="translate(33.8926 17.2075) scale(19.8531 19.7193)">
<stop offset="0.007" stop-color="#021192"/>
<stop offset="0.03" stop-color="#021096"/>
<stop offset="0.057" stop-color="#010CB4"/>
<stop offset="0.084" stop-color="#0008CE"/>
<stop offset="0.111" stop-color="#0006D7"/>
<stop offset="0.138" stop-color="#0004E1"/>
<stop offset="0.165" stop-color="#0001FA"/>
<stop offset="0.191" stop-color="#0000FE"/>
<stop offset="0.216" stop-color="#0F1EFF"/>
<stop offset="1" stop-color="#00FFFF" stop-opacity="0"/>
</radialGradient>
</defs>
</svg>
